<svg width="129" height="30" viewBox="0 0 129 30" fill="none" xmlns="http://www.w3.org/2000/svg">
<path d="M6.91208 23.9999C5.50408 23.9999 4.27742 23.7333 3.23208 23.1999C2.20808 22.6666 1.40808 21.8986 0.832082 20.8959C0.277416 19.8719 8.22544e-05 18.6666 8.22544e-05 17.2799V6.71993C8.22544e-05 5.31193 0.277416 4.1066 0.832082 3.10393C1.40808 2.10126 2.20808 1.33326 3.23208 0.799931C4.27742 0.266598 5.50408 -6.86646e-05 6.91208 -6.86646e-05C8.32008 -6.86646e-05 9.53608 0.277264 10.5601 0.83193C11.5841 1.36526 12.3734 2.13326 12.9281 3.13593C13.4827 4.1386 13.7601 5.33326 13.7601 6.71993H10.8801C10.8801 5.39726 10.5281 4.38393 9.82408 3.67993C9.14142 2.9546 8.17075 2.59193 6.91208 2.59193C5.65342 2.59193 4.66142 2.94393 3.93608 3.64793C3.23208 4.35193 2.88008 5.36526 2.88008 6.68793V17.2799C2.88008 18.6026 3.23208 19.6266 3.93608 20.3519C4.66142 21.0559 5.65342 21.4079 6.91208 21.4079C8.17075 21.4079 9.14142 21.0559 9.82408 20.3519C10.5281 19.6266 10.8801 18.6026 10.8801 17.2799H13.7601C13.7601 18.6453 13.4827 19.8399 12.9281 20.8639C12.3734 21.8666 11.5841 22.6453 10.5601 23.1999C9.53608 23.7333 8.32008 23.9999 6.91208 23.9999ZM25.9716 23.9359C24.5636 23.9359 23.3476 23.6693 22.3236 23.1359C21.2996 22.6026 20.4996 21.8346 19.9236 20.8319C19.3689 19.8079 19.0916 18.6026 19.0916 17.2159V12.5439C19.0916 11.1359 19.3689 9.9306 19.9236 8.92793C20.4996 7.92526 21.2996 7.15726 22.3236 6.62393C23.3476 6.0906 24.5636 5.82393 25.9716 5.82393C27.3796 5.82393 28.5956 6.0906 29.6196 6.62393C30.6436 7.15726 31.4329 7.92526 31.9876 8.92793C32.5636 9.9306 32.8516 11.1253 32.8516 12.5119V17.2159C32.8516 18.6026 32.5636 19.8079 31.9876 20.8319C31.4329 21.8346 30.6436 22.6026 29.6196 23.1359C28.5956 23.6693 27.3796 23.9359 25.9716 23.9359ZM25.9716 21.3759C27.2302 21.3759 28.2116 21.0239 28.9156 20.3199C29.6196 19.6159 29.9716 18.5813 29.9716 17.2159V12.5439C29.9716 11.1786 29.6196 10.1439 28.9156 9.43993C28.2116 8.73593 27.2302 8.38393 25.9716 8.38393C24.7342 8.38393 23.7529 8.73593 23.0276 9.43993C22.3236 10.1439 21.9716 11.1786 21.9716 12.5439V17.2159C21.9716 18.5813 22.3236 19.6159 23.0276 20.3199C23.7529 21.0239 24.7342 21.3759 25.9716 21.3759ZM37.6711 23.6799V6.07993H40.1991V8.19193H40.7751L40.3271 8.95993C40.3271 7.9786 40.5831 7.19993 41.0951 6.62393C41.6284 6.04793 42.3431 5.75993 43.2391 5.75993C44.2204 5.75993 44.9777 6.1226 45.5111 6.84793C46.0444 7.57326 46.3111 8.59726 46.3111 9.91993L45.4471 8.19193H46.7911L46.1831 8.95993C46.1831 7.9786 46.4497 7.19993 46.9831 6.62393C47.5377 6.04793 48.2631 5.75993 49.1591 5.75993C50.2684 5.75993 51.1217 6.17593 51.7191 7.00793C52.3377 7.83993 52.6471 8.9386 52.6471 10.3039V23.6799H49.9911V10.2719C49.9911 9.5466 49.8311 8.98126 49.5111 8.57593C49.2124 8.1706 48.7644 7.96793 48.1671 7.96793C47.5911 7.96793 47.1324 8.1706 46.7911 8.57593C46.4711 8.95993 46.3111 9.5146 46.3111 10.2399V23.6799H44.0071V10.2719C44.0071 9.52526 43.8364 8.95993 43.4951 8.57593C43.1751 8.1706 42.7164 7.96793 42.1191 7.96793C41.5217 7.96793 41.0737 8.1706 40.7751 8.57593C40.4764 8.95993 40.3271 9.5146 40.3271 10.2399V23.6799H37.6711ZM57.6906 29.4399V6.07993H60.5706V9.43993H61.1466L60.5706 10.1119C60.5706 8.76793 61.0079 7.71193 61.8826 6.94393C62.7786 6.1546 63.9519 5.75993 65.4026 5.75993C67.1732 5.75993 68.5812 6.3466 69.6266 7.51993C70.6933 8.67193 71.2266 10.2613 71.2266 12.2879V17.4399C71.2266 18.7839 70.9812 19.9466 70.4906 20.9279C70.0212 21.9093 69.3492 22.6666 68.4746 23.1999C67.6212 23.7333 66.5972 23.9999 65.4026 23.9999C63.9732 23.9999 62.8106 23.6053 61.9146 22.8159C61.0186 22.0266 60.5706 20.9706 60.5706 19.6479L61.1466 20.3199H60.5066L60.5706 24.3199V29.4399H57.6906ZM64.4426 21.5039C65.6586 21.5039 66.6079 21.1413 67.2906 20.4159C67.9946 19.6906 68.3466 18.6453 68.3466 17.2799V12.4799C68.3466 11.1146 67.9946 10.0693 67.2906 9.34393C66.6079 8.6186 65.6586 8.25593 64.4426 8.25593C63.2692 8.25593 62.3306 8.62926 61.6266 9.37593C60.9226 10.1226 60.5706 11.1573 60.5706 12.4799V17.2799C60.5706 18.6026 60.9226 19.6373 61.6266 20.3839C62.3306 21.1306 63.2692 21.5039 64.4426 21.5039ZM81.9981 23.9999C80.1421 23.9999 78.6807 23.5306 77.6141 22.5919C76.5474 21.6319 76.0141 20.3413 76.0141 18.7199C76.0141 17.0773 76.5474 15.7866 77.6141 14.8479C78.6807 13.9093 80.1207 13.4399 81.9341 13.4399H87.3741V11.6799C87.3741 10.5919 87.0434 9.75993 86.3821 9.18393C85.7421 8.5866 84.8247 8.28793 83.6301 8.28793C82.5847 8.28793 81.7101 8.51193 81.0061 8.95993C80.3021 9.3866 79.8967 9.97326 79.7901 10.7199H76.9101C77.1021 9.20526 77.8167 7.99993 79.0541 7.10393C80.2914 6.20793 81.8381 5.75993 83.6941 5.75993C85.7207 5.75993 87.3207 6.2826 88.4941 7.32793C89.6674 8.37326 90.2541 9.79193 90.2541 11.5839V23.6799H87.4381V20.3199H86.9581L87.4381 19.8399C87.4381 21.1199 86.9367 22.1333 85.9341 22.8799C84.9527 23.6266 83.6407 23.9999 81.9981 23.9999ZM82.7021 21.7279C84.0674 21.7279 85.1874 21.3866 86.0621 20.7039C86.9367 20.0213 87.3741 19.1466 87.3741 18.0799V15.5839H81.9981C81.0381 15.5839 80.2807 15.8506 79.7261 16.3839C79.1714 16.9173 78.8941 17.6426 78.8941 18.5599C78.8941 19.5413 79.2247 20.3199 79.8861 20.8959C80.5687 21.4506 81.5074 21.7279 82.7021 21.7279ZM96.6736 23.6799V6.07993H99.4896V9.43993H100.162L99.2336 11.5199C99.2336 9.62126 99.6389 8.19193 100.45 7.23193C101.282 6.2506 102.508 5.75993 104.13 5.75993C105.986 5.75993 107.458 6.3466 108.546 7.51993C109.655 8.67193 110.21 10.2399 110.21 12.2239V13.2799H107.33V12.4799C107.33 11.0933 106.988 10.0373 106.306 9.31193C105.644 8.56526 104.695 8.19193 103.458 8.19193C102.242 8.19193 101.282 8.56526 100.578 9.31193C99.8949 10.0586 99.5536 11.1146 99.5536 12.4799V23.6799H96.6736ZM121.909 23.9999C120.522 23.9999 119.306 23.7226 118.261 23.1679C117.237 22.6133 116.437 21.8346 115.861 20.8319C115.306 19.8079 115.029 18.6239 115.029 17.2799V12.4799C115.029 11.1146 115.306 9.9306 115.861 8.92793C116.437 7.92526 117.237 7.1466 118.261 6.59193C119.306 6.03726 120.522 5.75993 121.909 5.75993C123.296 5.75993 124.501 6.03726 125.525 6.59193C126.57 7.1466 127.37 7.92526 127.925 8.92793C128.501 9.9306 128.789 11.1146 128.789 12.4799V15.5839H117.845V17.2799C117.845 18.6666 118.197 19.7333 118.901 20.4799C119.605 21.2053 120.608 21.5679 121.909 21.5679C123.018 21.5679 123.914 21.3759 124.597 20.9919C125.28 20.5866 125.696 19.9893 125.845 19.1999H128.725C128.533 20.6719 127.808 21.8453 126.549 22.7199C125.312 23.5733 123.765 23.9999 121.909 23.9999ZM125.973 13.6639V12.4799C125.973 11.0933 125.621 10.0266 124.917 9.27993C124.234 8.53326 123.232 8.15993 121.909 8.15993C120.608 8.15993 119.605 8.53326 118.901 9.27993C118.197 10.0266 117.845 11.0933 117.845 12.4799V13.4079H126.197L125.973 13.6639Z" fill="white"/>
</svg>
